<?xml version="1.0" encoding="UTF-8" standalone="no"?>
<svg
   xmlns:dc="http://purl.org/dc/elements/1.1/"
   xmlns:cc="http://creativecommons.org/ns#"
   xmlns:rdf="http://www.w3.org/1999/02/22-rdf-syntax-ns#"
   xmlns:svg="http://www.w3.org/2000/svg"
   xmlns="http://www.w3.org/2000/svg"
   xmlns:sodipodi="http://sodipodi.sourceforge.net/DTD/sodipodi-0.dtd"
   xmlns:inkscape="http://www.inkscape.org/namespaces/inkscape"
   width="615"
   height="614"
   viewBox="0 0 615 614"
   id="svg7026"
   version="1.1"
   inkscape:version="0.48.2 r9819"
   sodipodi:docname="Ouroboros-simple.svg"
   inkscape:export-filename="/home/julankin/Work/Other/Eclipse/workspace/fgj2012/src/resources/Ouroboros-simple.png"
   inkscape:export-xdpi="19.200001"
   inkscape:export-ydpi="19.200001">
  <metadata
     id="metadata7042">
    <rdf:RDF>
      <cc:Work
         rdf:about="">
        <dc:format>image/svg+xml</dc:format>
        <dc:type
           rdf:resource="http://purl.org/dc/dcmitype/StillImage" />
        <dc:title>Simple ouroboros depiction (glyph &quot;oroboros&quot; from toa267 public domain Fnord-Podge font)</dc:title>
      </cc:Work>
    </rdf:RDF>
  </metadata>
  <defs
     id="defs7040" />
  <sodipodi:namedview
     pagecolor="#ffffff"
     bordercolor="#666666"
     borderopacity="1"
     objecttolerance="10"
     gridtolerance="10"
     guidetolerance="10"
     inkscape:pageopacity="0"
     inkscape:pageshadow="2"
     inkscape:window-width="1680"
     inkscape:window-height="1021"
     id="namedview7038"
     showgrid="false"
     inkscape:zoom="0.38436482"
     inkscape:cx="307.5"
     inkscape:cy="307"
     inkscape:window-x="1440"
     inkscape:window-y="0"
     inkscape:window-maximized="1"
     inkscape:current-layer="svg7026" />
  <title
     id="title7028">Simple ouroboros depiction (glyph &quot;oroboros&quot; from toa267 public domain Fnord-Podge font)</title>
  <g
     transform="matrix(-0.6,0,0,-0.6,607.5,607.5)"
     id="g7030">
    <path
       d="m 604,24 c 231,47 396,246 396,476 0,276 -224,500 -500,500 C 224,1000 0,776 0,500 0,283 146,92 358,30 c 5,-1 7,-2 12,-2 18,0 33,-13 53,-13 10,0 35,3 45,3 30,0 74,-18 104,-18 13,0 28,10 32,24 z M 342,136 C 192,198 95,341 95,500 95,724 276,905 500,905 724,905 905,724 905,500 905,328 795,176 632,120 c 1,18 -22,29 -48,29 -14,0 -27,-5 -34,-5 -10,0 -28,11 -46,11 -20,0 -54,-8 -84,-13 -30,-5 -63,-12 -78,-6 z"
       id="path7032"
       inkscape:connector-curvature="0"
       style="fill:#ebebeb" />
    <path
       d="m 604,24 c 231,47 396,246 396,476 0,276 -224,500 -500,500 C 224,1000 0,776 0,500 0,283 146,92 358,30 c 5,-1 7,-2 12,-2 18,0 33,-13 53,-13 10,0 35,3 45,3 30,0 74,-18 104,-18 13,0 28,10 32,24 z M 357,43 C 152,104 12,290 12,500 12,770 230,988 500,988 770,988 988,770 988,500 988,269 818,72 585,32 c -36,-6 -86,16 -86,23 0,5 21,12 25,14 C 763,81 950,270 950,500 950,749 749,950 500,950 251,950 50,749 50,500 50,346 133,202 268,123 c 13,-6 37,-7 47,-7 10,0 46,2 56,7 10,5 49,10 69,15 20,5 47,9 62,9 25,0 48,-15 56,-14 v 2 c 0,3 9,5 27,5 20,0 41,-7 39,-23 l -24,-9 C 580,102 571,103 561,99 536,91 530,80 507,70 484,60 450,60 450,55 c 0,-3 15,-4 25,-5 25,-3 50,-23 80,-26 20,-2 25,-1 39,0 -1,-5 -9,-15 -22,-15 -32,0 -72,19 -99,19 -15,0 -26,-6 -41,-6 -22,0 -47,18 -67,30 -5,3 -10,6 -15,6 -5,0 -5,-1 -5,-2 0,-4 20,-10 20,-13 0,-2 -3,-1 -8,0 z M 572,92 C 772,127 917,299 917,500 917,730 730,917 500,917 270,917 83,730 83,500 83,337 183,189 337,125 313,122 285,124 272,130 139,208 58,348 58,500 58,744 256,942 500,942 744,942 942,744 942,500 942,280 767,97 539,78 c 5,2 13,12 33,14 z M 342,136 C 192,198 95,341 95,500 95,724 276,905 500,905 724,905 905,724 905,500 905,328 795,176 632,120 c 1,18 -22,29 -48,29 -14,0 -27,-5 -34,-5 -10,0 -28,11 -46,11 -20,0 -54,-8 -84,-13 -30,-5 -63,-12 -78,-6 z m 104,-16 c 0,-2 4,-3 14,-3 15,-1 18,-13 30,-13 21,0 30,9 37,9 l 10,-2 1,2 c -10,7 -25,17 -35,17 -5,0 -10,-1 -20,-4 -15,-4 -37,-4 -37,-6 z m 134,7 c 18,-3 17,-9 27,-9 3,0 5,2 5,5 0,3 -12,6 -31,7 l -1,-3 z"
       id="path7034"
       inkscape:connector-curvature="0" />
    <path
       d="m 472,119 15,3 c 0,-5 3,-10 5,-13 -9,0 -15,8 -20,10 z m 50,-2 -17,-7 c 1,5 1,10 0,15 8,-2 12,-5 17,-8 z"
       id="path7036"
       inkscape:connector-curvature="0"
       style="fill:#ffffff" />
  </g>
  <path
     sodipodi:type="spiral"
     style="fill:none;stroke:#000000;stroke-width:8.2;stroke-linecap:butt;stroke-linejoin:miter;stroke-opacity:1;stroke-miterlimit:4;stroke-dasharray:none"
     id="path7044"
     sodipodi:cx="293.99152"
     sodipodi:cy="301.7966"
     sodipodi:expansion="1"
     sodipodi:revolution="2.8874905"
     sodipodi:radius="256.51447"
     sodipodi:argument="-17.278267"
     sodipodi:t0="0"
     d="m 293.99152,301.7966 c -0.007,13.36236 -18.01544,6.58364 -22.20912,-0.0109 -11.36461,-17.87091 5.0212,-38.93858 22.231,-44.40729 30.7843,-9.78224 60.39177,15.0985 66.60546,44.45106 9.11885,43.07606 -25.221,82.22758 -66.67111,88.80363 -55.24649,8.76484 -104.21123,-35.34755 -111.00181,-88.89117 -8.54525,-67.37918 45.47311,-126.26826 111.11123,-133.19998 79.49655,-8.39524 148.36721,55.59753 155.39815,133.33129 8.28572,91.60654 -65.72113,170.49239 -155.55134,177.59632 C 190.19144,487.67128 101.26889,403.62533 94.109482,301.69812 85.974509,185.88195 180.07639,86.908075 294.10094,79.705451 422.01925,71.625196 531.05487,175.79484 538.29178,301.91696 c 4.17456,72.75268 -25.15315,144.82696 -77.79193,195.0069" />
</svg>
