<?xml version="1.0" encoding="UTF-8" standalone="no"?>
<!-- Created with Inkscape (http://www.inkscape.org/) -->

<svg
   xmlns:dc="http://purl.org/dc/elements/1.1/"
   xmlns:cc="http://creativecommons.org/ns#"
   xmlns:rdf="http://www.w3.org/1999/02/22-rdf-syntax-ns#"
   xmlns:svg="http://www.w3.org/2000/svg"
   xmlns="http://www.w3.org/2000/svg"
   xmlns:sodipodi="http://sodipodi.sourceforge.net/DTD/sodipodi-0.dtd"
   xmlns:inkscape="http://www.inkscape.org/namespaces/inkscape"
   width="744.09448819"
   height="1052.3622047"
   id="svg5472"
   version="1.1"
   inkscape:version="0.48.2 r9819"
   sodipodi:docname="New document 23">
  <defs
     id="defs5474">
    <filter
       inkscape:collect="always"
       id="filter6016">
      <feGaussianBlur
         inkscape:collect="always"
         stdDeviation="4.2142303"
         id="feGaussianBlur6018" />
    </filter>
  </defs>
  <sodipodi:namedview
     id="base"
     pagecolor="#ffffff"
     bordercolor="#666666"
     borderopacity="1.0"
     inkscape:pageopacity="0.0"
     inkscape:pageshadow="2"
     inkscape:zoom="1.979899"
     inkscape:cx="375"
     inkscape:cy="645.86373"
     inkscape:document-units="px"
     inkscape:current-layer="g6020"
     showgrid="false"
     inkscape:window-width="1680"
     inkscape:window-height="1021"
     inkscape:window-x="1440"
     inkscape:window-y="0"
     inkscape:window-maximized="1">
    <inkscape:grid
       type="xygrid"
       id="grid6010" />
  </sodipodi:namedview>
  <metadata
     id="metadata5477">
    <rdf:RDF>
      <cc:Work
         rdf:about="">
        <dc:format>image/svg+xml</dc:format>
        <dc:type
           rdf:resource="http://purl.org/dc/dcmitype/StillImage" />
        <dc:title></dc:title>
      </cc:Work>
    </rdf:RDF>
  </metadata>
  <g
     inkscape:label="Layer 1"
     inkscape:groupmode="layer"
     id="layer1">
    <g
       id="g6020"
       transform="matrix(0.95433624,-0.29873458,0.29873458,0.95433624,-96.65386,112.60293)">
      <path
         transform="translate(57.360352,57.507767)"
         d="m 352.54323,314.95084 c 0,49.65237 -40.25121,89.90358 -89.90358,89.90358 -49.65238,0 -89.90358,-40.25121 -89.90358,-89.90358 0,-49.65238 40.2512,-89.90358 89.90358,-89.90358 49.65237,0 89.90358,40.2512 89.90358,89.90358 z"
         sodipodi:ry="89.90358"
         sodipodi:rx="89.90358"
         sodipodi:cy="314.95084"
         sodipodi:cx="262.63965"
         id="path5480"
         style="color:#000000;fill:#000000;fill-opacity:1;fill-rule:nonzero;stroke:none;stroke-width:20.39999962;marker:none;visibility:visible;display:inline;overflow:visible;filter:url(#filter6016);enable-background:accumulate"
         sodipodi:type="arc" />
      <path
         transform="matrix(0.92055909,0,0,0.92055909,77.259097,89.719743)"
         d="m 258.59906,313.94067 c 3.54532,2.9882 -2.2789,6.2533 -4.96658,5.89256 -7.28346,-0.97758 -9.2133,-10.03545 -6.81853,-15.82572 4.28369,-10.35743 17.50501,-12.65541 26.68485,-7.7445 13.47179,7.20695 16.18897,25.07209 8.67048,37.54399 -10.02097,16.62308 -32.67328,19.76087 -48.40313,9.59645 -19.7944,-12.79089 -23.35246,-40.29062 -10.52242,-59.26227 15.5389,-22.9772 47.91701,-26.95544 70.1214,-11.44839 26.1671,18.27453 30.56557,55.54905 12.37437,80.98054 -21.00247,29.36165 -63.18487,34.18046 -91.83967,13.30034 -32.55942,-23.72533 -37.79869,-70.82333 -14.22632,-102.69881 26.44464,-35.75947 78.46372,-41.41934 113.55795,-15.15229 20.24386,15.15197 32.81998,39.04488 34.3747,64.23195"
         sodipodi:t0="0"
         sodipodi:argument="-18.149223"
         sodipodi:radius="89.009026"
         sodipodi:revolution="2.8874905"
         sodipodi:expansion="1"
         sodipodi:cy="313.94067"
         sodipodi:cx="258.59906"
         id="path5482"
         style="fill:none;stroke:#ffffff;stroke-width:15.89999962;stroke-linecap:round;stroke-linejoin:round;stroke-miterlimit:4;stroke-opacity:1;stroke-dasharray:none"
         sodipodi:type="spiral" />
    </g>
  </g>
</svg>
